<mxfile host="app.diagrams.net" agent="Mozilla/5.0 (Windows NT 10.0; Win64; x64) AppleWebKit/537.36 (KHTML, like Gecko) Chrome/138.0.0.0 Safari/537.36" version="27.2.0">
  <diagram name="Trang-1" id="L-F9w_gH3jK4m5N_oPqR">
    <mxGraphModel dx="1138" dy="408" grid="1" gridSize="10" guides="1" tooltips="1" connect="1" arrows="1" fold="1" page="1" pageScale="1" pageWidth="1169" pageHeight="1600" math="0" shadow="0">
      <root>
        <mxCell id="0" />
        <mxCell id="1" parent="0" />
        <mxCell id="2" value="Người dùng" style="swimlane;fontStyle=1;align=center;verticalAlign=top;childLayout=stackLayout;horizontal=1;startSize=26;horizontalStack=0;resizeParent=1;resizeParentMax=0;resizeLast=0;collapsible=1;marginBottom=0;whiteSpace=wrap;html=1;" parent="1" vertex="1">
          <mxGeometry x="40" y="40" width="240" height="1520" as="geometry" />
        </mxCell>
        <mxCell id="4" value="" style="ellipse;html=1;shape=startState;fillColor=#000000;strokeColor=#000000;" parent="2" vertex="1">
          <mxGeometry x="105" y="60" width="30" height="30" as="geometry" />
        </mxCell>
        <mxCell id="5" value="Yêu cầu nâng cấp gói dịch vụ" style="rounded=1;whiteSpace=wrap;html=1;arcSize=40;fontColor=#000000;fillColor=#ffffc0;strokeColor=#ff0000;verticalAlign=middle;" parent="2" vertex="1">
          <mxGeometry x="55" y="130" width="140" height="60" as="geometry" />
        </mxCell>
        <mxCell id="6" value="Chọn gói dịch vụ muốn nâng cấp" style="rounded=1;whiteSpace=wrap;html=1;arcSize=40;fontColor=#000000;fillColor=#ffffc0;strokeColor=#ff0000;verticalAlign=middle;" parent="2" vertex="1">
          <mxGeometry x="55" y="310" width="140" height="60" as="geometry" />
        </mxCell>
        <mxCell id="7" value="Xem tóm tắt &amp; quyết định thanh toán" style="rhombus;whiteSpace=wrap;html=1;fillColor=#ffffc0;strokeColor=#ff0000;verticalAlign=middle;" parent="2" vertex="1">
          <mxGeometry x="50" y="490" width="150" height="80" as="geometry" />
        </mxCell>
        <mxCell id="8" value="Thực hiện thanh toán" style="rounded=1;whiteSpace=wrap;html=1;arcSize=40;fontColor=#000000;fillColor=#ffffc0;strokeColor=#ff0000;verticalAlign=middle;" parent="2" vertex="1">
          <mxGeometry x="55" y="810" width="140" height="60" as="geometry" />
        </mxCell>
        <mxCell id="41" value="Bắt đầu sử dụng dịch vụ" style="rounded=1;whiteSpace=wrap;html=1;arcSize=40;fontColor=#000000;fillColor=#ffffc0;strokeColor=#ff0000;verticalAlign=middle;" parent="2" vertex="1">
          <mxGeometry x="55" y="1330" width="140" height="60" as="geometry" />
        </mxCell>
        <mxCell id="3" value="" style="ellipse;html=1;shape=endState;fillColor=#000000;strokeColor=#000000;" parent="2" vertex="1">
          <mxGeometry x="105" y="1470" width="30" height="30" as="geometry" />
        </mxCell>
        <mxCell id="9" value="Hệ thống UniPlan" style="swimlane;fontStyle=1;align=center;verticalAlign=top;childLayout=stackLayout;horizontal=1;startSize=26;horizontalStack=0;resizeParent=1;resizeParentMax=0;resizeLast=0;collapsible=1;marginBottom=0;whiteSpace=wrap;html=1;" parent="1" vertex="1">
          <mxGeometry x="280" y="40" width="560" height="1520" as="geometry" />
        </mxCell>
        <mxCell id="10" value="Hiển thị danh sách các gói dịch vụ" style="rounded=1;whiteSpace=wrap;html=1;arcSize=40;fontColor=#000000;fillColor=#dae8fc;strokeColor=#6c8ebf;verticalAlign=middle;" parent="9" vertex="1">
          <mxGeometry x="215" y="220" width="140" height="60" as="geometry" />
        </mxCell>
        <mxCell id="42" value="Hiển thị trang tóm tắt đơn hàng" style="rounded=1;whiteSpace=wrap;html=1;arcSize=40;fontColor=#000000;fillColor=#dae8fc;strokeColor=#6c8ebf;verticalAlign=middle;" parent="9" vertex="1">
          <mxGeometry x="215" y="400" width="140" height="60" as="geometry" />
        </mxCell>
        <mxCell id="11" value="Xử lý yêu cầu và chuyển hướng đến trang thanh toán" style="rounded=1;whiteSpace=wrap;html=1;arcSize=40;fontColor=#000000;fillColor=#dae8fc;strokeColor=#6c8ebf;verticalAlign=middle;" parent="9" vertex="1">
          <mxGeometry x="215" y="690" width="140" height="60" as="geometry" />
        </mxCell>
        <mxCell id="12" value="Xác thực kết quả thanh toán" style="rhombus;whiteSpace=wrap;html=1;fillColor=#dae8fc;strokeColor=#6c8ebf;verticalAlign=middle;" parent="9" vertex="1">
          <mxGeometry x="205" y="970" width="160" height="80" as="geometry" />
        </mxCell>
        <mxCell id="15" value="Hiển thị thông báo lỗi thanh toán" style="rounded=1;whiteSpace=wrap;html=1;arcSize=40;fontColor=#000000;fillColor=#f8cecc;strokeColor=#b85450;verticalAlign=middle;" parent="9" vertex="1">
          <mxGeometry x="405" y="980" width="140" height="60" as="geometry" />
        </mxCell>
        <mxCell id="13" value="Cập nhật trạng thái gói dịch vụ" style="rhombus;whiteSpace=wrap;html=1;fillColor=#dae8fc;strokeColor=#6c8ebf;verticalAlign=middle;" parent="9" vertex="1">
          <mxGeometry x="205" y="1110" width="160" height="80" as="geometry" />
        </mxCell>
        <mxCell id="16" value="Ghi log lỗi, thông báo Admin &amp; Hoàn tiền (nếu có)" style="rounded=1;whiteSpace=wrap;html=1;arcSize=40;fontColor=#000000;fillColor=#f8cecc;strokeColor=#b85450;verticalAlign=middle;" parent="9" vertex="1">
          <mxGeometry x="405" y="1120" width="140" height="60" as="geometry" />
        </mxCell>
        <mxCell id="14" value="Hiển thị thông báo thành công" style="rounded=1;whiteSpace=wrap;html=1;arcSize=40;fontColor=#000000;fillColor=#dae8fc;strokeColor=#6c8ebf;verticalAlign=middle;" parent="9" vertex="1">
          <mxGeometry x="215" y="1250" width="140" height="60" as="geometry" />
        </mxCell>
        <mxCell id="39" value="" style="ellipse;html=1;shape=endState;fillColor=#000000;strokeColor=#000000;" parent="9" vertex="1">
          <mxGeometry x="455" y="1470" width="30" height="30" as="geometry" />
        </mxCell>
        <mxCell id="18" value="Hệ thống Thanh toán" style="swimlane;fontStyle=1;align=center;verticalAlign=top;childLayout=stackLayout;horizontal=1;startSize=26;horizontalStack=0;resizeParent=1;resizeParentMax=0;resizeLast=0;collapsible=1;marginBottom=0;whiteSpace=wrap;html=1;" parent="1" vertex="1">
          <mxGeometry x="840" y="40" width="240" height="1520" as="geometry" />
        </mxCell>
        <mxCell id="19" value="Xử lý giao dịch" style="rounded=1;whiteSpace=wrap;html=1;arcSize=40;fontColor=#000000;fillColor=#d5e8d4;strokeColor=#82b366;verticalAlign=middle;" parent="18" vertex="1">
          <mxGeometry x="55" y="810" width="140" height="60" as="geometry" />
        </mxCell>
        <mxCell id="20" value="Gửi kết quả thanh toán" style="rounded=1;whiteSpace=wrap;html=1;arcSize=40;fontColor=#000000;fillColor=#d5e8d4;strokeColor=#82b366;verticalAlign=middle;" parent="18" vertex="1">
          <mxGeometry x="55" y="980" width="140" height="60" as="geometry" />
        </mxCell>
        <mxCell id="21" value="" style="edgeStyle=orthogonalEdgeStyle;endArrow=classic;html=1;rounded=0;" parent="1" source="4" target="5" edge="1">
          <mxGeometry width="50" height="50" relative="1" as="geometry">
            <mxPoint x="120" y="90" as="sourcePoint" />
            <mxPoint x="120" y="130" as="targetPoint" />
          </mxGeometry>
        </mxCell>
        <mxCell id="22" value="" style="edgeStyle=orthogonalEdgeStyle;endArrow=classic;html=1;rounded=0;" parent="1" source="5" target="10" edge="1">
          <mxGeometry width="50" height="50" relative="1" as="geometry">
            <mxPoint x="125" y="190" as="sourcePoint" />
            <mxPoint x="485" y="250" as="targetPoint" />
          </mxGeometry>
        </mxCell>
        <mxCell id="23" value="" style="edgeStyle=orthogonalEdgeStyle;endArrow=classic;html=1;rounded=0;" parent="1" source="10" target="6" edge="1">
          <mxGeometry width="50" height="50" relative="1" as="geometry">
            <mxPoint x="485" y="280" as="sourcePoint" />
            <mxPoint x="125" y="340" as="targetPoint" />
          </mxGeometry>
        </mxCell>
        <mxCell id="24" value="" style="edgeStyle=orthogonalEdgeStyle;endArrow=classic;html=1;rounded=0;" parent="1" source="6" target="42" edge="1">
          <mxGeometry width="50" height="50" relative="1" as="geometry">
            <mxPoint x="125" y="370" as="sourcePoint" />
            <mxPoint x="485" y="430" as="targetPoint" />
          </mxGeometry>
        </mxCell>
        <mxCell id="28" value="" style="edgeStyle=orthogonalEdgeStyle;endArrow=classic;html=1;rounded=0;" parent="1" source="11" target="8" edge="1">
          <mxGeometry width="50" height="50" relative="1" as="geometry">
            <mxPoint x="485" y="720" as="sourcePoint" />
            <mxPoint x="125" y="840" as="targetPoint" />
          </mxGeometry>
        </mxCell>
        <mxCell id="29" value="" style="edgeStyle=orthogonalEdgeStyle;endArrow=classic;html=1;rounded=0;" parent="1" source="8" target="19" edge="1">
          <mxGeometry width="50" height="50" relative="1" as="geometry">
            <mxPoint x="195" y="840" as="sourcePoint" />
            <mxPoint x="895" y="840" as="targetPoint" />
          </mxGeometry>
        </mxCell>
        <mxCell id="30" value="" style="edgeStyle=orthogonalEdgeStyle;endArrow=classic;html=1;rounded=0;" parent="1" source="19" target="20" edge="1">
          <mxGeometry width="50" height="50" relative="1" as="geometry">
            <mxPoint x="960" y="870" as="sourcePoint" />
            <mxPoint x="960" y="980" as="targetPoint" />
          </mxGeometry>
        </mxCell>
        <mxCell id="31" value="" style="edgeStyle=orthogonalEdgeStyle;endArrow=classic;html=1;rounded=0;" parent="1" source="20" target="12" edge="1">
          <mxGeometry width="50" height="50" relative="1" as="geometry">
            <mxPoint x="895" y="1010" as="sourcePoint" />
            <mxPoint x="485" y="1010" as="targetPoint" />
          </mxGeometry>
        </mxCell>
        <mxCell id="32" value="[Thành công]" style="edgeStyle=orthogonalEdgeStyle;endArrow=classic;html=1;rounded=0;" parent="1" source="12" target="13" edge="1">
          <mxGeometry width="50" height="50" relative="1" as="geometry">
            <mxPoint x="485" y="1050" as="sourcePoint" />
            <mxPoint x="485" y="1110" as="targetPoint" />
          </mxGeometry>
        </mxCell>
        <mxCell id="33" value="[Thất bại]" style="edgeStyle=orthogonalEdgeStyle;endArrow=classic;html=1;rounded=0;" parent="1" source="12" target="15" edge="1">
          <mxGeometry width="50" height="50" relative="1" as="geometry">
            <mxPoint x="495" y="1010" as="sourcePoint" />
            <mxPoint x="545" y="1010" as="targetPoint" />
          </mxGeometry>
        </mxCell>
        <mxCell id="34" value="[Thành công]" style="edgeStyle=orthogonalEdgeStyle;endArrow=classic;html=1;rounded=0;" parent="1" source="13" target="14" edge="1">
          <mxGeometry width="50" height="50" relative="1" as="geometry">
            <mxPoint x="485" y="1190" as="sourcePoint" />
            <mxPoint x="485" y="1250" as="targetPoint" />
          </mxGeometry>
        </mxCell>
        <mxCell id="35" value="[Lỗi hệ thống]" style="edgeStyle=orthogonalEdgeStyle;endArrow=classic;html=1;rounded=0;" parent="1" source="13" target="16" edge="1">
          <mxGeometry width="50" height="50" relative="1" as="geometry">
            <mxPoint x="495" y="1150" as="sourcePoint" />
            <mxPoint x="545" y="1150" as="targetPoint" />
          </mxGeometry>
        </mxCell>
        <mxCell id="36" value="" style="edgeStyle=orthogonalEdgeStyle;endArrow=classic;html=1;rounded=0;" parent="1" source="14" target="41" edge="1">
          <mxGeometry width="50" height="50" relative="1" as="geometry">
            <mxPoint x="485" y="1310" as="sourcePoint" />
            <mxPoint x="125" y="1360" as="targetPoint" />
          </mxGeometry>
        </mxCell>
        <mxCell id="38" value="" style="edgeStyle=orthogonalEdgeStyle;endArrow=classic;html=1;rounded=0;" parent="1" source="16" target="39" edge="1">
          <mxGeometry width="50" height="50" relative="1" as="geometry">
            <mxPoint x="545" y="1150" as="sourcePoint" />
            <mxPoint x="470" y="1485" as="targetPoint" />
            <Array as="points">
              <mxPoint x="755" y="1150" />
              <mxPoint x="650" y="1150" />
              <mxPoint x="650" y="1485" />
              <mxPoint x="750" y="1485" />
            </Array>
          </mxGeometry>
        </mxCell>
        <mxCell id="40" value="" style="edgeStyle=orthogonalEdgeStyle;endArrow=classic;html=1;rounded=0;" parent="1" source="42" target="7" edge="1">
          <mxGeometry width="50" height="50" relative="1" as="geometry">
            <mxPoint x="485" y="460" as="sourcePoint" />
            <mxPoint x="125" y="530" as="targetPoint" />
          </mxGeometry>
        </mxCell>
        <mxCell id="43" value="[Hủy]" style="edgeStyle=orthogonalEdgeStyle;endArrow=classic;html=1;rounded=0;exitX=0.5;exitY=0;exitDx=0;exitDy=0;" parent="1" source="7" target="10" edge="1">
          <mxGeometry x="-0.9" y="-20" width="50" height="50" relative="1" as="geometry">
            <mxPoint x="125" y="490" as="sourcePoint" />
            <mxPoint x="485" y="250" as="targetPoint" />
            <Array as="points">
              <mxPoint x="90" y="530" />
              <mxPoint x="90" y="250" />
              <mxPoint x="125" y="250" />
              <mxPoint x="125" y="290" />
            </Array>
            <mxPoint as="offset" />
          </mxGeometry>
        </mxCell>
        <mxCell id="44" value="[Tiến hành thanh toán]" style="edgeStyle=orthogonalEdgeStyle;endArrow=classic;html=1;rounded=0;exitX=0.5;exitY=1;exitDx=0;exitDy=0;" parent="1" source="7" target="11" edge="1">
          <mxGeometry width="50" height="50" relative="1" as="geometry">
            <mxPoint x="125" y="570" as="sourcePoint" />
            <mxPoint x="485" y="720" as="targetPoint" />
          </mxGeometry>
        </mxCell>
        <mxCell id="45" value="" style="edgeStyle=orthogonalEdgeStyle;endArrow=classic;html=1;rounded=0;" parent="1" source="41" target="3" edge="1">
          <mxGeometry width="50" height="50" relative="1" as="geometry">
            <mxPoint x="125" y="1390" as="sourcePoint" />
            <mxPoint x="120" y="1470" as="targetPoint" />
          </mxGeometry>
        </mxCell>
        <mxCell id="46" value="Thử lại" style="edgeStyle=orthogonalEdgeStyle;endArrow=classic;html=1;rounded=0;entryX=1;entryY=0.5;entryDx=0;entryDy=0;" parent="1" source="15" target="7" edge="1">
          <mxGeometry width="50" height="50" relative="1" as="geometry">
            <mxPoint x="545" y="1010" as="sourcePoint" />
            <mxPoint x="200" y="530" as="targetPoint" />
            <Array as="points">
              <mxPoint x="755" y="1010" />
              <mxPoint x="660" y="1010" />
              <mxPoint x="660" y="530" />
              <mxPoint x="240" y="530" />
            </Array>
          </mxGeometry>
        </mxCell>
      </root>
    </mxGraphModel>
  </diagram>
</mxfile>
